<?xml version="1.0" encoding="utf-8"?>
<!-- Generator: Adobe Illustrator 18.0.0, SVG Export Plug-In . SVG Version: 6.00 Build 0)  -->
<!DOCTYPE svg PUBLIC "-//W3C//DTD SVG 1.1//EN" "http://www.w3.org/Graphics/SVG/1.1/DTD/svg11.dtd">
<svg version="1.1" id="Layer_1" xmlns="http://www.w3.org/2000/svg" xmlns:xlink="http://www.w3.org/1999/xlink" x="0px" y="0px"
	 width="253.5px" height="72.8px" viewBox="0 0 253.5 72.8" enable-background="new 0 0 253.5 72.8" xml:space="preserve">
<path fill="#1279E5" d="M227.5,63.5c0-0.8,0-1.5,0-2.3c-0.1-1.9-1.6-3.7-3.3-3.9c-2.4-0.3-4.1,0.7-4.7,2.9c-0.5,1.8-0.1,3.7-0.2,5.5
	c-0.1,0.9,0.4,1,1.1,1c0.8,0,1.1-0.3,1-1.1c0-1.5,0-3,0-4.5c0-1.2,0.8-2,1.9-2c1.2,0,2,0.7,2,2c0,1.4,0,2.7,0,4.1
	c0,0.7-0.2,1.4,1,1.4c1.1,0,1.1-0.6,1.1-1.4C227.4,64.8,227.5,64.1,227.5,63.5z"/>
<g>
	<path fill="#414141" d="M0,38.1h3.2v2.1c0.9-1.2,2.1-2.4,4.3-2.4c2,0,3.4,1,4.2,2.5c1.1-1.5,2.6-2.5,4.7-2.5c3,0,4.9,1.9,4.9,5.3
		v8.9H18v-7.9c0-2.2-1-3.4-2.8-3.4c-1.7,0-3,1.2-3,3.5v7.9H9v-7.9c0-2.2-1.1-3.4-2.8-3.4c-1.8,0-3,1.3-3,3.5v7.9H0V38.1z"/>
	<path fill="#414141" d="M23.1,45.2L23.1,45.2c0-4,3.2-7.3,7.4-7.3c4.3,0,7.4,3.2,7.4,7.2v0.1c0,4-3.2,7.3-7.5,7.3
		C26.2,52.4,23.1,49.1,23.1,45.2z M34.8,45.2L34.8,45.2c0-2.5-1.8-4.5-4.3-4.5c-2.6,0-4.2,2-4.2,4.4v0.1c0,2.4,1.8,4.5,4.3,4.5
		C33.1,49.6,34.8,47.6,34.8,45.2z"/>
	<path fill="#414141" d="M43.2,49.9v2.2H40V32.8h3.2v7.7c1-1.5,2.5-2.6,4.8-2.6c3.3,0,6.5,2.6,6.5,7.2v0.1c0,4.6-3.2,7.2-6.5,7.2
		C45.6,52.4,44.2,51.2,43.2,49.9z M51.1,45.1L51.1,45.1c0-2.7-1.8-4.5-4-4.5s-4.1,1.8-4.1,4.5v0.1c0,2.7,1.9,4.5,4.1,4.5
		C49.4,49.6,51.1,47.9,51.1,45.1z"/>
	<path fill="#414141" d="M56.5,33H60v3h-3.4V33z M56.7,38.1h3.2v13.9h-3.2V38.1z"/>
	<path fill="#414141" d="M63,32.8h3.2v19.3H63V32.8z"/>
	<path fill="#414141" d="M68.4,45.2L68.4,45.2c0-4,2.8-7.3,6.8-7.3c4.4,0,6.7,3.5,6.7,7.5c0,0.3,0,0.6-0.1,0.9H71.6
		c0.3,2.3,2,3.5,4,3.5c1.6,0,2.7-0.6,3.8-1.7l1.9,1.7c-1.3,1.6-3.1,2.6-5.7,2.6C71.5,52.4,68.4,49.5,68.4,45.2z M78.7,44.1
		c-0.2-2.1-1.4-3.7-3.5-3.7c-2,0-3.3,1.5-3.6,3.7H78.7z"/>
</g>
<g>
	<linearGradient id="SVGID_1_" gradientUnits="userSpaceOnUse" x1="134.0361" y1="0.25" x2="134.0361" y2="73.0155">
		<stop  offset="0" style="stop-color:#1E9DFF"/>
		<stop  offset="1" style="stop-color:#005AFE"/>
	</linearGradient>
	<path fill="url(#SVGID_1_)" d="M134.1,40.6c-2.2,0-4.1,1.8-4.1,4.5v0.1c0,2.7,1.9,4.5,4.1,4.5c2.2,0,4-1.7,4-4.5v-0.1
		C138.1,42.4,136.2,40.6,134.1,40.6z"/>
	<linearGradient id="SVGID_2_" gradientUnits="userSpaceOnUse" x1="117.5417" y1="0.25" x2="117.5417" y2="73.0155">
		<stop  offset="0" style="stop-color:#1E9DFF"/>
		<stop  offset="1" style="stop-color:#005AFE"/>
	</linearGradient>
	<path fill="url(#SVGID_2_)" d="M117.6,40.6c-2.2,0-4.1,1.8-4.1,4.5v0.1c0,2.7,1.9,4.5,4.1,4.5c2.2,0,4-1.7,4-4.5v-0.1
		C121.6,42.4,119.7,40.6,117.6,40.6z"/>
	<linearGradient id="SVGID_3_" gradientUnits="userSpaceOnUse" x1="118.0339" y1="0.25" x2="118.0339" y2="73.0155">
		<stop  offset="0" style="stop-color:#1E9DFF"/>
		<stop  offset="1" style="stop-color:#005AFE"/>
	</linearGradient>
	<path fill="url(#SVGID_3_)" d="M146.4,25.4c-0.7-4.2-4.8-7.7-9-7.7c-12.9,0-25.8,0-38.7,0c-4.6,0-9.1,4.5-9.1,9.1
		c0,12.1,0,24.1-0.1,36.2c0,5.3,4.7,10,10,9.9c6.2-0.1,12.3,0,18.5,0c6.2,0,12.4,0,18.6,0c5.6,0,10-4.4,10-9.9c0-11.6,0-23.2,0-34.7
		C146.6,27.2,146.5,26.3,146.4,25.4z M107.8,52.1h-3.1v-1.7c-1,1.1-2.4,2-4.5,2c-2.6,0-4.9-1.5-4.9-4.3V48c0-3,2.3-4.5,5.8-4.5
		c1.6,0,2.7,0.2,3.7,0.6v-0.3c0-2-1.2-3-3.5-3c-1.6,0-2.7,0.3-4,0.9l-0.8-2.5c1.5-0.7,3-1.1,5.3-1.1c2.1,0,3.6,0.6,4.6,1.6
		c1,1,1.5,2.5,1.5,4.3V52.1z M124.8,45.1c0,4.6-3.2,7.2-6.5,7.2c-2.3,0-3.8-1.2-4.8-2.5v6.4h-3.2V38.1h3.2v2.3
		c1-1.5,2.5-2.6,4.8-2.6C121.6,37.8,124.8,40.4,124.8,45.1L124.8,45.1z M141.3,45.1c0,4.6-3.2,7.2-6.5,7.2c-2.3,0-3.8-1.2-4.8-2.5
		v6.4h-3.2V38.1h3.2v2.3c1-1.5,2.5-2.6,4.8-2.6C138.1,37.8,141.3,40.4,141.3,45.1L141.3,45.1z"/>
	<linearGradient id="SVGID_4_" gradientUnits="userSpaceOnUse" x1="101.5349" y1="0.25" x2="101.5349" y2="73.0155">
		<stop  offset="0" style="stop-color:#1E9DFF"/>
		<stop  offset="1" style="stop-color:#005AFE"/>
	</linearGradient>
	<path fill="url(#SVGID_4_)" d="M98.3,47.9L98.3,47.9c0,1.4,1.2,2.2,2.7,2.2c2.1,0,3.7-1.2,3.7-3v-1c-0.8-0.3-1.9-0.6-3.2-0.6
		C99.5,45.6,98.3,46.4,98.3,47.9z"/>
</g>
<g>
	<path fill="#1279E5" d="M188.3,66.2v0.6h-1.7v-6.7h1.7v2.4c0.3-0.4,0.8-0.8,1.5-0.8c1.2,0,2.2,1,2.2,2.6v0c0,1.6-1,2.6-2.2,2.6
		C189.1,66.9,188.7,66.5,188.3,66.2z M190.4,64.3L190.4,64.3c0-0.7-0.5-1.2-1-1.2c-0.6,0-1,0.5-1,1.1v0c0,0.7,0.5,1.1,1,1.1
		C189.9,65.4,190.4,65,190.4,64.3z"/>
	<path fill="#1279E5" d="M195.6,61.8h1.8l-1.8,4.9c-0.4,1.2-0.9,1.6-1.9,1.6c-0.6,0-1.1-0.2-1.6-0.4l0.5-1.2
		c0.3,0.2,0.6,0.3,0.8,0.3c0.2,0,0.3,0,0.4-0.2l-2-4.9h1.8l1,3L195.6,61.8z"/>
</g>
<g>
	<path fill="#414141" d="M155.8,48.2v-7.3H154v-2.7h1.8v-3.8h3.2v3.8h3.7v2.7H159v6.8c0,1.2,0.6,1.7,1.7,1.7c0.7,0,1.3-0.2,2-0.5
		v2.6c-0.8,0.4-1.7,0.7-2.9,0.7C157.5,52.3,155.8,51.3,155.8,48.2z"/>
	<path fill="#414141" d="M165.6,38.1h3.2v3.1c0.9-2.1,2.5-3.5,4.9-3.4v3.4h-0.2c-2.8,0-4.8,1.8-4.8,5.5v5.3h-3.2V38.1z"/>
	<path fill="#414141" d="M174.4,48.1L174.4,48.1c0-3.1,2.3-4.5,5.8-4.5c1.6,0,2.7,0.2,3.7,0.6v-0.3c0-2-1.2-3-3.5-3
		c-1.6,0-2.7,0.3-4,0.9l-0.8-2.5c1.5-0.7,3-1.1,5.3-1.1c2.1,0,3.6,0.6,4.6,1.6c1,1,1.5,2.5,1.5,4.3v8.3h-3.1v-1.7
		c-1,1.1-2.4,2-4.5,2C176.7,52.4,174.4,50.9,174.4,48.1z M184,47.1v-1c-0.8-0.3-1.9-0.6-3.2-0.6c-2.1,0-3.3,0.9-3.3,2.3v0.1
		c0,1.3,1.2,2.1,2.7,2.1C182.4,50,184,48.8,184,47.1z"/>
	<path fill="#414141" d="M189.6,45.2L189.6,45.2c0-4,3.1-7.3,7.3-7.3c2.6,0,4.2,1,5.6,2.4l-2,2.1c-1-1-2-1.7-3.6-1.7
		c-2.3,0-4,2-4,4.4v0.1c0,2.5,1.7,4.5,4.2,4.5c1.5,0,2.6-0.7,3.6-1.7l1.9,1.9c-1.4,1.5-3,2.6-5.7,2.6
		C192.7,52.4,189.6,49.1,189.6,45.2z"/>
	<path fill="#414141" d="M204.2,32.8h3.2v11.5l5.8-6.2h3.9l-5.5,5.7l5.7,8.3h-3.7l-4.1-6l-2,2.1v4h-3.2V32.8z"/>
	<path fill="#414141" d="M218.4,33h3.4v3h-3.4V33z M218.5,38.1h3.2v13.9h-3.2V38.1z"/>
	<path fill="#414141" d="M224.6,38.1h3.2v2.1c0.9-1.3,2.2-2.4,4.4-2.4c3.1,0,5,2.1,5,5.3v8.9H234v-7.9c0-2.2-1.1-3.4-3-3.4
		c-1.8,0-3.1,1.3-3.1,3.5v7.9h-3.2V38.1z"/>
	<path fill="#414141" d="M239.7,54.7l1.2-2.4c1.5,0.9,3.1,1.5,5,1.5c2.9,0,4.4-1.5,4.4-4.3v-1.1c-1.2,1.5-2.6,2.6-4.9,2.6
		c-3.3,0-6.3-2.4-6.3-6.5v-0.1c0-4.1,3.1-6.5,6.3-6.5c2.3,0,3.8,1.1,4.9,2.4v-2.1h3.2v11.1c0,2.3-0.6,4.1-1.8,5.3
		c-1.3,1.3-3.2,1.9-5.7,1.9C243.7,56.4,241.5,55.8,239.7,54.7z M250.3,44.4L250.3,44.4c0-2.3-1.9-3.9-4.1-3.9s-4,1.5-4,3.8v0.1
		c0,2.3,1.8,3.8,4,3.8C248.4,48.2,250.3,46.7,250.3,44.4z"/>
</g>
<path fill="#1279E5" d="M207.8,58.1c0-0.5-0.1-0.8-0.7-0.8c-0.8,0-1.6,0-2.4,0c-0.3,0-0.6,0-0.9,0c0,0-0.1,0-0.1,0c0,0-0.1,0-0.1,0
	c-0.3,0-0.6,0-0.9,0c-0.8,0-1.6,0-2.4,0c-0.6,0-0.7,0.3-0.7,0.8c0,0.6-0.2,1.2,0.7,1.2c0,0,0.1,0,0.1,0l1.9,0h0.4v0.6v5.8
	c0,0.1,0,0.2,0,0.3c-0.1,0.9,0.4,0.8,1,0.9c0.6,0,1.1,0,1-0.9c0-0.1,0-0.2,0-0.3v-5.8v-0.6h0.4h2.1C208,59.3,207.8,58.7,207.8,58.1z
	"/>
<g>
	<path fill="#1279E5" d="M217.2,57.3h-0.4c0,0-0.1,0-0.1,0c-0.1,0-0.2,0-0.3,0H216c-0.3,0-0.4,0.2-0.4,0.7c0.1,1.4,0,2.8,0,4.2
		c0,1.5-0.7,2.5-2,2.5c-1.3,0-2.1-0.9-2.1-2.5c0-1.4-0.1-2.7,0-4.1c0-0.6-0.2-0.8-0.5-0.8h-0.5c-0.1,0-0.1,0-0.2,0h-0.3
		c-0.3,0-0.5,0.1-0.5,0.7c0.1,1.7,0,3.4,0,5.1c0,1.6,1.5,3.2,3.2,3.6c1.5,0.4,3.2-0.5,4.1-1.8c1-1.4,0.5-2.9,0.7-4.1
		c0-1.1,0-2,0-2.8C217.6,57.5,217.4,57.3,217.2,57.3z"/>
</g>
<path fill="#1279E5" d="M237.2,61.8v-0.7h-0.4h-0.6H234c-0.7,0-1.4,0-2,0c-0.9,0-0.7-0.4-0.5-0.9c0.4-0.7,1.1-0.9,1.9-0.9
	c0.5,0,1,0,1.6,0h0h1.9h0.4v-0.5v0v-0.8v-0.2c0-0.3-0.1-0.5-0.5-0.5c0,0,0,0,0,0h-0.1c0,0,0,0,0,0h-2.9h0c-0.9,0-1.8,0.1-2.7,0.7
	c-1.1,0.8-1.7,1.8-1.7,3.1c0,0.2,0,0.6,0,1h0c0,0,0,0.1,0,0.1c0,0,0,0.1,0,0.1h0c0,0.2,0,0.5,0,0.7c0,1.3,0.6,2.3,1.7,3.1
	c0.9,0.6,1.8,0.7,2.7,0.7h0h2.9c0,0,0,0,0,0h0.1c0,0,0,0,0,0c0.4,0,0.5-0.2,0.5-0.5v-0.2v-0.8v0v-0.5h-0.4h-1.9h0c-0.5,0-1,0-1.6,0
	c-0.8,0-1.5-0.2-1.9-0.9c-0.3-0.5-0.4-0.9,0.5-0.9c0.7,0,1.4,0,2,0h2.2h0.6h0.4v-0.6h0C237.2,62.2,237.2,61.9,237.2,61.8z"/>
<linearGradient id="SVGID_5_" gradientUnits="userSpaceOnUse" x1="150.5405" y1="0.25" x2="150.5405" y2="73.0155">
	<stop  offset="0" style="stop-color:#1E9DFF"/>
	<stop  offset="1" style="stop-color:#005AFE"/>
</linearGradient>
<path fill="url(#SVGID_5_)" d="M164.5,27.5h-3C161.5,14,150.3,3,136.6,3V0C152,0,164.5,12.3,164.5,27.5z"/>
<linearGradient id="SVGID_6_" gradientUnits="userSpaceOnUse" x1="147.5532" y1="0.25" x2="147.5532" y2="73.0155">
	<stop  offset="0" style="stop-color:#1E9DFF"/>
	<stop  offset="1" style="stop-color:#005AFE"/>
</linearGradient>
<path fill="url(#SVGID_6_)" d="M158.5,27.4h-3c0-10.3-8.5-18.6-18.9-18.6v-3C148.7,5.8,158.5,15.5,158.5,27.4z"/>
<linearGradient id="SVGID_7_" gradientUnits="userSpaceOnUse" x1="144.6504" y1="0.25" x2="144.6504" y2="73.0155">
	<stop  offset="0" style="stop-color:#1E9DFF"/>
	<stop  offset="1" style="stop-color:#005AFE"/>
</linearGradient>
<path fill="url(#SVGID_7_)" d="M152.7,27.5h-3c0-7.1-5.9-12.9-13.1-12.9v-3C145.5,11.6,152.7,18.8,152.7,27.5z"/>
</svg>
